<?xml version="1.0" standalone="no"?>
<!DOCTYPE svg PUBLIC "-//W3C//DTD SVG 20010904//EN"
 "http://www.w3.org/TR/2001/REC-SVG-20010904/DTD/svg10.dtd">
<svg version="1.0" xmlns="http://www.w3.org/2000/svg"
 width="573.000000pt" height="435.000000pt" viewBox="0 0 573.000000 435.000000"
 preserveAspectRatio="xMidYMid meet">

<g transform="translate(0.000000,435.000000) scale(0.100000,-0.100000)"
fill="#000000" stroke="none">
<path d="M2948 4223 c7 -3 16 -2 19 1 4 3 -2 6 -13 5 -11 0 -14 -3 -6 -6z"/>
<path d="M2680 4206 c0 -2 7 -7 16 -10 8 -3 12 -2 9 4 -6 10 -25 14 -25 6z"/>
<path d="M3035 4190 c3 -5 8 -10 11 -10 2 0 4 5 4 10 0 6 -5 10 -11 10 -5 0
-7 -4 -4 -10z"/>
<path d="M3081 4167 c2 -1 13 -9 24 -17 19 -14 19 -14 6 3 -7 9 -18 17 -24 17
-6 0 -8 -1 -6 -3z"/>
<path d="M2733 4095 c0 -8 4 -12 9 -9 5 3 6 10 3 15 -9 13 -12 11 -12 -6z"/>
<path d="M2775 4100 c-3 -5 -1 -10 4 -10 6 0 11 5 11 10 0 6 -2 10 -4 10 -3 0
-8 -4 -11 -10z"/>
<path d="M2976 4081 c-4 -5 -2 -12 3 -15 5 -4 12 -2 15 3 4 5 2 12 -3 15 -5 4
-12 2 -15 -3z"/>
<path d="M2646 4063 c-6 -14 -5 -15 5 -6 7 7 10 15 7 18 -3 3 -9 -2 -12 -12z"/>
<path d="M3010 4060 c-9 -6 -10 -10 -3 -10 6 0 15 5 18 10 8 12 4 12 -15 0z"/>
<path d="M3200 3971 c0 -6 4 -13 10 -16 6 -3 7 1 4 9 -7 18 -14 21 -14 7z"/>
<path d="M2500 3930 c-9 -6 -10 -10 -3 -10 6 0 15 5 18 10 8 12 4 12 -15 0z"/>
<path d="M2345 3760 c-4 -6 -11 -7 -17 -4 -7 4 -8 2 -4 -5 6 -9 11 -9 22 0 14
11 18 19 10 19 -3 0 -8 -5 -11 -10z"/>
<path d="M3523 3735 c0 -8 4 -12 9 -9 5 3 6 10 3 15 -9 13 -12 11 -12 -6z"/>
<path d="M3580 3690 c0 -5 5 -10 11 -10 5 0 7 5 4 10 -3 6 -8 10 -11 10 -2 0
-4 -4 -4 -10z"/>
<path d="M3504 3589 c-3 -6 -2 -15 3 -20 5 -5 9 -1 9 11 0 23 -2 24 -12 9z"/>
<path d="M1837 3583 l-48 -4 2 -120 3 -121 -39 -33 c-37 -30 -39 -34 -27 -59
18 -40 15 -46 -22 -46 -43 0 -78 29 -144 118 -44 59 -57 70 -105 86 -38 13
-68 16 -98 12 -24 -4 -76 -10 -114 -14 -81 -10 -148 -39 -199 -90 -40 -39 -52
-69 -41 -110 4 -15 8 -41 9 -57 2 -45 51 -120 122 -190 75 -74 126 -106 218
-134 113 -35 213 -22 280 37 20 17 45 32 55 32 25 0 56 -37 81 -100 13 -30 34
-65 47 -78 29 -27 30 -25 -21 -46 -46 -19 -107 -21 -125 -3 -10 10 -12 2 -7
-43 4 -30 8 -113 9 -185 4 -143 2 -148 -82 -279 -42 -67 -39 -75 10 -26 28 28
49 40 69 40 47 0 60 10 106 81 105 164 119 260 88 579 -27 271 -25 341 10 413
16 31 54 83 85 115 59 60 116 90 249 127 53 16 62 22 62 41 0 13 -9 28 -19 34
-27 14 -194 13 -208 -1 -9 -9 -27 -8 -74 6 -82 23 -77 22 -132 18z m-427 -294
c44 -10 120 -69 120 -94 0 -5 16 -25 35 -44 19 -19 33 -37 31 -39 -3 -2 -31
10 -64 26 -88 45 -121 52 -178 37 -103 -26 -148 -28 -175 -6 l-24 19 19 36
c23 44 76 66 176 74 8 1 35 -3 60 -9z"/>
<path d="M3545 3541 c-3 -5 -2 -12 3 -15 5 -3 9 1 9 9 0 17 -3 19 -12 6z"/>
<path d="M2741 3516 c-9 -10 -29 -16 -57 -16 -45 0 -68 -16 -37 -26 88 -27
173 -107 173 -163 0 -15 -18 -43 -48 -75 -26 -28 -54 -60 -62 -72 -18 -25
-113 -74 -145 -74 -29 0 -108 -35 -125 -55 -7 -8 -19 -15 -26 -15 -19 0 -41
-38 -49 -85 -4 -22 -16 -55 -26 -73 -10 -18 -19 -40 -19 -47 0 -8 -18 -24 -40
-35 -23 -12 -45 -32 -50 -46 -5 -13 -21 -29 -35 -36 -13 -6 -35 -31 -47 -56
-12 -25 -30 -54 -40 -64 -10 -10 -18 -24 -18 -31 0 -7 -9 -29 -20 -50 -24 -44
-25 -82 -5 -121 8 -15 15 -37 15 -48 0 -53 67 -141 128 -168 102 -45 139 -116
153 -290 5 -63 12 -132 15 -153 3 -20 2 -43 -4 -50 -5 -6 -17 -39 -25 -72 -28
-107 -31 -113 -79 -120 -24 -4 -97 -4 -163 -1 -66 2 -143 5 -172 5 -28 0 -67
7 -87 15 -36 15 -71 12 -60 -5 3 -5 14 -9 25 -9 10 0 19 -7 19 -15 0 -11 13
-15 53 -15 30 0 78 -8 108 -18 101 -34 192 -46 255 -33 32 6 69 11 83 12 20 0
41 19 91 81 36 44 76 92 90 108 34 39 57 66 110 130 25 30 51 61 58 69 41 43
172 211 165 212 -4 1 -60 2 -123 3 l-115 1 0 65 0 65 155 0 c149 0 155 -1 158
-21 2 -13 -5 -24 -20 -32 -13 -6 -17 -11 -10 -11 7 -1 10 -6 6 -13 -4 -7 -3
-8 5 -4 6 4 9 12 6 17 -12 18 6 8 32 -19 16 -16 82 -78 148 -138 66 -61 133
-122 149 -137 l29 -27 51 48 c28 27 169 166 314 308 205 203 261 264 256 278
-5 14 -9 15 -15 4 -6 -10 -43 -13 -151 -13 l-143 0 0 110 0 110 159 2 158 2
-4 -30 c-4 -23 -1 -28 11 -24 34 10 167 46 192 51 22 5 26 11 25 37 -1 17 -8
32 -16 35 -8 2 -44 18 -80 35 l-65 32 -297 0 c-163 0 -299 3 -303 7 -4 4 21
21 55 37 129 63 254 177 320 294 51 91 39 157 -39 206 -73 47 -121 62 -186 61
-33 0 -77 -1 -98 -1 -57 1 -90 -21 -159 -104 -33 -41 -67 -75 -74 -75 -16 0
-34 31 -34 59 0 28 -52 121 -67 121 -16 0 -17 -1 7 45 11 22 20 57 20 80 0 39
-1 40 -38 44 -20 2 -57 3 -82 2 -101 -3 -127 -3 -175 4 -41 6 -53 4 -64 -9z
m1004 -296 c3 -5 1 -10 -4 -10 -6 0 -11 5 -11 10 0 6 2 10 4 10 3 0 8 -4 11
-10z m-198 -32 c27 -26 47 -81 38 -108 -7 -21 -52 -50 -78 -50 -8 0 -35 11
-61 25 -56 30 -80 31 -169 6 l-68 -19 79 80 c54 54 90 83 113 88 50 13 120 2
146 -22z m-715 -347 l42 -38 -32 -67 c-27 -55 -39 -70 -69 -83 -45 -18 -108
-13 -173 15 l-44 18 32 19 c18 11 44 43 62 74 48 90 59 99 113 100 19 1 41
-11 69 -38z m572 -484 c11 -42 6 -188 -6 -200 -15 -14 -68 -20 -68 -7 0 4 -11
7 -25 6 -14 0 -25 -4 -25 -7 0 -4 -18 -3 -40 1 -22 4 -40 4 -40 0 0 -3 -22 -4
-50 0 -31 4 -51 2 -54 -4 -2 -6 -5 44 -5 112 l-1 123 154 -2 c149 -1 154 -1
160 -22z"/>
<path d="M2660 2739 c0 -7 -8 -18 -17 -24 -16 -12 -14 -14 20 -20 51 -10 96 0
118 27 24 27 24 36 1 15 -23 -21 -75 -22 -92 -2 -15 18 -30 20 -30 4z"/>
<path d="M3650 3426 c0 -2 7 -9 15 -16 13 -11 14 -10 9 4 -5 14 -24 23 -24 12z"/>
<path d="M3970 3301 c0 -6 4 -13 10 -16 6 -3 7 1 4 9 -7 18 -14 21 -14 7z"/>
<path d="M3806 3282 c-3 -5 1 -9 9 -9 8 0 12 4 9 9 -3 4 -7 8 -9 8 -2 0 -6 -4
-9 -8z"/>
<path d="M3946 3141 c-4 -5 -2 -12 3 -15 5 -4 12 -2 15 3 4 5 2 12 -3 15 -5 4
-12 2 -15 -3z"/>
<path d="M4165 3090 c-3 -6 1 -7 9 -4 18 7 21 14 7 14 -6 0 -13 -4 -16 -10z"/>
<path d="M1742 2738 c-6 -6 -26 -11 -44 -10 -31 1 -32 0 -14 -14 11 -8 40 -14
64 -14 l45 0 -19 23 c-10 12 -19 23 -20 24 0 2 -5 -2 -12 -9z"/>
<path d="M4370 2740 c-9 -6 -10 -10 -3 -10 6 0 15 5 18 10 8 12 4 12 -15 0z"/>
<path d="M4530 2740 c0 -5 5 -10 11 -10 5 0 7 5 4 10 -3 6 -8 10 -11 10 -2 0
-4 -4 -4 -10z"/>
<path d="M4516 2716 c5 -12 14 -16 31 -13 19 4 23 1 17 -12 -4 -9 -6 -24 -6
-35 1 -17 0 -18 -12 -1 -8 11 -20 16 -29 12 -9 -3 -19 -2 -22 3 -8 13 -46 8
-41 -6 2 -6 0 -16 -6 -22 -6 -6 -6 -12 2 -17 7 -4 17 -1 22 6 7 10 8 8 3 -8
-4 -16 2 -26 25 -43 16 -12 30 -18 30 -13 0 4 7 0 15 -10 23 -31 165 -36 165
-6 0 6 -7 8 -16 5 -14 -5 -15 -4 -5 8 16 19 6 36 -19 36 -10 0 -22 5 -26 12
-5 8 -1 9 12 5 10 -4 1 9 -20 28 -22 19 -44 35 -50 35 -11 -1 14 -23 44 -40 8
-5 11 -12 7 -16 -4 -4 -13 -2 -19 4 -18 18 -31 14 -23 -5 4 -11 3 -14 -3 -8
-15 16 -23 75 -11 75 8 0 8 5 -1 14 -6 8 -18 12 -26 9 -8 -3 -21 0 -29 7 -13
11 -14 10 -9 -4z m-19 -66 c6 -23 23 -27 23 -5 0 24 17 17 24 -10 4 -14 11
-23 16 -20 6 4 14 -2 18 -12 8 -21 53 -28 45 -7 -7 18 11 18 27 0 6 -8 19 -12
28 -8 16 5 16 5 0 -11 -13 -14 -22 -15 -45 -6 -32 12 -33 12 -52 -4 -12 -10
-13 -9 -6 2 6 11 4 13 -8 8 -20 -7 -47 1 -47 14 0 6 8 5 19 -1 14 -7 22 -7 27
2 5 7 3 8 -5 4 -8 -5 -14 0 -18 13 -6 24 -18 27 -27 9 -5 -10 -7 -10 -12 0 -3
7 -12 19 -20 26 -17 17 -18 26 -3 26 6 0 13 -9 16 -20z"/>
<path d="M1154 2689 c0 -21 4 -26 18 -24 20 4 51 -22 43 -36 -10 -15 -28 -10
-21 6 4 12 -4 15 -44 15 -33 0 -50 -4 -50 -12 0 -9 -4 -8 -10 2 -7 10 -10 11
-10 2 0 -6 -11 -22 -25 -34 -13 -11 -22 -25 -18 -31 3 -5 -4 -4 -17 3 -20 11
-21 10 -11 -9 15 -27 4 -56 -15 -40 -8 6 -14 16 -14 21 0 6 7 5 15 -2 8 -7 15
-8 15 -2 0 5 -7 15 -15 22 -11 9 -15 9 -15 1 0 -7 -4 -10 -8 -7 -4 2 -9 -5 -9
-16 -2 -26 -28 -53 -51 -53 -12 0 -21 -15 -31 -55 -8 -30 -18 -57 -21 -60 -3
-3 -14 -16 -23 -30 -24 -34 -25 -235 -1 -268 8 -12 17 -33 18 -45 1 -13 10
-34 19 -47 9 -14 17 -28 17 -32 0 -15 50 -66 535 -549 270 -268 491 -484 493
-478 2 5 11 9 20 9 10 0 33 19 54 42 l36 43 -306 303 c-169 166 -386 381 -483
477 -260 257 -272 275 -272 415 0 66 5 95 21 130 25 52 43 82 56 91 5 4 5 12
1 19 -5 8 -4 11 2 7 5 -3 33 17 61 44 38 36 52 58 52 77 -1 27 -1 27 -13 5 -8
-15 -17 -19 -26 -14 -11 7 -10 10 5 14 16 4 16 5 -3 6 -13 0 -23 -5 -23 -11 0
-7 -5 -5 -11 5 -6 10 -8 21 -5 24 3 4 6 2 6 -4 0 -16 59 -2 63 16 4 14 5 14 6
-1 0 -10 5 -18 11 -18 5 0 7 -8 3 -17 -3 -10 13 -1 38 22 24 22 45 41 47 42 2
1 1 6 -3 12 -4 7 -12 8 -24 2 -10 -6 -23 -6 -31 -1 -12 7 -10 11 9 18 23 8 22
9 -15 19 -40 10 -40 10 -40 -18z m40 4 c-5 -5 -12 -12 -15 -16 -3 -5 -9 -2
-12 7 -5 12 0 16 15 16 12 0 17 -3 12 -7z m46 -37 c0 -3 -4 -8 -10 -11 -5 -3
-10 -1 -10 4 0 6 5 11 10 11 6 0 10 -2 10 -4z m-105 -26 c3 -5 -1 -10 -10 -10
-9 0 -13 5 -10 10 3 6 8 10 10 10 2 0 7 -4 10 -10z m-78 -52 c-3 -8 -6 -5 -6
6 -1 11 2 17 5 13 3 -3 4 -12 1 -19z m-142 -107 c3 -5 2 -12 -3 -15 -5 -3 -9
1 -9 9 0 17 3 19 12 6z"/>
<path d="M4361 2717 c2 -2 11 -8 20 -15 12 -9 16 -9 16 1 0 7 -9 14 -20 14
-11 1 -18 1 -16 0z"/>
<path d="M4490 2699 c0 -5 5 -7 10 -4 6 3 10 8 10 11 0 2 -4 4 -10 4 -5 0 -10
-5 -10 -11z"/>
<path d="M1090 2670 c0 -5 5 -10 11 -10 5 0 7 5 4 10 -3 6 -8 10 -11 10 -2 0
-4 -4 -4 -10z"/>
<path d="M4408 2668 c16 -16 42 -19 36 -4 -2 6 -14 13 -26 13 -16 2 -18 -1
-10 -9z"/>
<path d="M1055 2661 c-3 -5 -1 -12 5 -16 5 -3 10 1 10 9 0 18 -6 21 -15 7z"/>
<path d="M3849 2583 c-13 -16 -12 -17 4 -4 16 13 21 21 13 21 -2 0 -10 -8 -17
-17z"/>
<path d="M3790 2566 c0 -2 7 -9 15 -16 13 -11 14 -10 9 4 -5 14 -24 23 -24 12z"/>
<path d="M4260 2564 c-8 -3 -37 -11 -65 -19 -27 -8 -79 -23 -115 -33 -36 -11
-80 -23 -97 -27 -18 -3 -35 -10 -38 -15 -3 -4 13 -24 35 -44 46 -42 48 -49 18
-70 -12 -9 -166 -159 -343 -333 -176 -175 -336 -333 -356 -351 l-35 -32 -46
42 c-25 24 -90 83 -144 133 -54 49 -110 100 -123 113 -13 12 -28 21 -32 20 -5
-2 -67 -75 -140 -163 -72 -88 -143 -174 -158 -190 -14 -17 -48 -57 -76 -90
-27 -33 -52 -62 -55 -65 -4 -3 -37 -43 -76 -90 -38 -46 -84 -100 -101 -120
-40 -43 -41 -48 -5 -45 29 2 80 42 74 59 -4 13 29 46 46 46 8 0 39 25 71 55
31 30 137 134 235 230 98 96 184 175 191 175 6 0 21 -10 32 -22 23 -26 239
-228 294 -276 l36 -31 423 424 424 425 25 -22 c13 -13 33 -32 44 -42 20 -19
20 -18 68 155 27 96 49 182 49 192 0 17 -25 22 -60 11z"/>
<path d="M3850 2550 c0 -5 5 -10 11 -10 5 0 7 5 4 10 -3 6 -8 10 -11 10 -2 0
-4 -4 -4 -10z"/>
<path d="M3765 2490 c-5 -9 -4 -11 3 -6 15 9 16 -6 2 -22 -7 -9 -7 -9 2 -2 7
6 19 5 32 -2 18 -9 19 -8 6 3 -8 8 -19 20 -26 28 -9 11 -12 12 -19 1z"/>
<path d="M4383 2433 c-3 -16 -6 -36 -5 -46 0 -9 -3 -15 -7 -13 -4 3 -8 -1 -8
-9 0 -8 4 -12 9 -9 4 3 8 -19 8 -50 0 -34 -5 -56 -12 -59 -10 -4 -10 -6 0 -6
9 -1 12 -51 12 -215 l0 -214 -75 -4 c-41 -2 -75 0 -75 3 0 4 -38 5 -86 3 l-85
-4 3 120 c1 65 0 122 -3 125 -6 5 -179 -159 -179 -170 0 -3 3 -4 8 -2 4 3 6
-79 4 -182 -2 -157 -5 -188 -17 -188 -8 0 -15 5 -15 11 0 7 -3 6 -8 -1 -10
-16 -102 -23 -102 -9 0 6 -5 4 -10 -4 -9 -13 -10 -13 -10 0 0 13 -1 13 -10 0
-5 -8 -10 -10 -10 -5 0 12 -55 14 -65 3 -4 -4 -14 -4 -22 -1 -8 3 -19 0 -24
-8 -7 -12 -9 -12 -10 1 0 10 -3 8 -9 -5 -7 -15 -9 -10 -9 23 -1 26 3 42 11 42
9 0 9 3 1 11 -9 9 -36 -14 -107 -85 -53 -53 -90 -96 -83 -96 7 0 13 -9 14 -20
1 -11 -1 -18 -5 -16 -4 3 -8 -4 -8 -15 0 -10 4 -19 8 -19 12 0 10 -242 -2
-260 -6 -10 -10 -11 -10 -2 0 6 -8 12 -17 12 -15 0 -16 -2 -3 -10 10 -6 11
-10 3 -10 -20 0 -28 4 -25 13 1 4 -2 7 -7 7 -5 0 -12 -12 -16 -27 -5 -21 -8
-24 -16 -12 -12 20 -11 37 2 19 9 -12 10 -12 7 -1 -6 21 -28 26 -28 6 0 -16
-28 -16 -130 0 -8 1 -21 -3 -29 -9 -12 -9 -13 -7 -7 8 7 19 6 19 -13 2 -20
-18 -20 -18 -23 178 -2 108 0 196 4 196 4 0 4 8 1 18 -6 15 -5 15 10 3 9 -7
14 -18 10 -24 -3 -6 -1 -7 6 -3 13 9 -24 54 -105 127 -27 24 -57 53 -67 64
-13 14 -20 16 -23 7 -3 -6 -10 -10 -14 -7 -5 3 -12 0 -16 -6 -4 -7 -3 -9 4 -5
17 10 25 -13 10 -31 -9 -12 -9 -15 0 -9 9 6 12 -43 12 -229 0 -222 -1 -237
-17 -230 -44 19 -131 12 -95 -8 4 -2 1 -2 -6 0 -8 1 -28 4 -45 4 l-32 2 35 7
c35 7 34 7 -11 9 -33 1 -49 -3 -53 -14 -7 -19 -26 -20 -26 -2 0 14 -27 16 -48
3 -19 -12 -24 15 -20 118 2 53 2 96 1 96 -4 0 -150 -140 -367 -353 l-185 -182
247 -251 c232 -236 252 -254 326 -290 80 -39 80 -39 205 -39 139 0 183 11 276
71 28 17 409 390 860 840 897 896 857 851 891 1018 16 81 16 90 -1 177 -19 95
-32 114 -64 85 -14 -13 -41 -16 -142 -15 -132 0 -125 -2 -241 69 -15 9 -19 6
-25 -17z"/>
<path d="M4350 2315 c0 -8 2 -15 4 -15 2 0 6 7 10 15 3 8 1 15 -4 15 -6 0 -10
-7 -10 -15z"/>
<path d="M4340 2260 c-8 -5 -10 -10 -5 -10 6 0 17 5 25 10 8 5 11 10 5 10 -5
0 -17 -5 -25 -10z"/>
<path d="M4325 2231 c-3 -5 0 -13 6 -17 7 -4 9 -3 5 4 -3 5 0 13 6 15 9 4 10
6 1 6 -6 1 -14 -3 -18 -8z"/>
<path d="M4147 2116 c-4 -10 -1 -13 8 -9 8 3 12 9 9 14 -7 12 -11 11 -17 -5z"/>
<path d="M4085 2090 c-16 -17 -16 -20 -3 -15 9 4 19 13 22 21 7 19 2 18 -19
-6z"/>
<path d="M1935 2070 c27 -12 43 -12 25 0 -8 5 -22 9 -30 9 -10 0 -8 -3 5 -9z"/>
<path d="M2055 2051 c-3 -5 -2 -12 3 -15 5 -3 9 1 9 9 0 17 -3 19 -12 6z"/>
<path d="M2180 2056 c0 -2 8 -10 18 -17 15 -13 16 -12 3 4 -13 16 -21 21 -21
13z"/>
<path d="M2865 2040 c-3 -5 -1 -10 4 -10 6 0 11 5 11 10 0 6 -2 10 -4 10 -3 0
-8 -4 -11 -10z"/>
<path d="M1730 1986 c0 -2 7 -7 16 -10 8 -3 12 -2 9 4 -6 10 -25 14 -25 6z"/>
<path d="M1581 1927 c-8 -10 -7 -14 2 -14 8 0 14 6 14 14 0 7 -1 13 -2 13 -2
0 -8 -6 -14 -13z"/>
<path d="M2078 1908 c7 -7 16 -7 28 0 14 8 13 10 -10 10 -18 0 -24 -4 -18 -10z"/>
<path d="M1635 1900 c-3 -6 1 -7 9 -4 18 7 21 14 7 14 -6 0 -13 -4 -16 -10z"/>
<path d="M2083 1885 c3 -5 -1 -16 -9 -23 -11 -10 -14 -10 -14 0 0 9 -3 9 -10
-2 -9 -13 -10 -13 -10 0 0 13 -1 13 -10 0 -7 -11 -10 -11 -10 -2 0 7 -5 10
-10 7 -12 -8 -260 -12 -260 -5 0 5 -47 5 -60 0 -3 -1 -16 -2 -30 -2 -69 2 -99
6 -93 15 3 5 -4 4 -16 -2 -17 -10 -21 -21 -21 -65 0 -50 2 -54 30 -66 36 -15
82 -8 167 26 50 20 80 25 157 25 89 1 101 -2 156 -30 63 -33 106 -38 161 -20
52 18 69 37 69 80 0 37 -13 58 -25 40 -3 -7 -15 -7 -29 -1 -13 5 -27 6 -31 2
-12 -12 -79 0 -93 16 -7 10 -11 13 -9 7z"/>
<path d="M3844 1848 l-19 -23 23 19 c12 11 22 21 22 23 0 8 -8 2 -26 -19z"/>
<path d="M3764 1768 l-19 -23 23 19 c21 18 27 26 19 26 -2 0 -12 -10 -23 -22z"/>
<path d="M1745 1719 c-75 -27 -125 -63 -125 -91 0 -18 2 -19 16 -7 14 11 21 8
50 -25 32 -35 37 -38 60 -27 30 13 81 15 88 2 7 -11 345 -26 381 -17 17 4 25
13 25 27 0 12 9 32 20 46 11 14 20 33 20 43 0 16 -6 16 -72 4 -113 -20 -137
-18 -214 22 -91 47 -164 53 -249 23z"/>
<path d="M2826 1533 c-6 -14 -5 -15 5 -6 7 7 10 15 7 18 -3 3 -9 -2 -12 -12z"/>
<path d="M2726 1447 c-15 -16 -16 -19 -3 -14 8 3 18 1 20 -6 2 -7 4 0 4 16 0
15 0 27 -1 26 0 0 -10 -10 -20 -22z"/>
<path d="M3329 1333 c-13 -16 -12 -17 4 -4 16 13 21 21 13 21 -2 0 -10 -8 -17
-17z"/>
<path d="M3294 1294 c-18 -14 -18 -15 4 -4 12 6 22 13 22 15 0 8 -5 6 -26 -11z"/>
<path d="M2225 1123 c-16 -21 -33 -42 -39 -48 -6 -5 -40 -46 -75 -90 l-65 -80
115 110 c62 61 113 113 113 118 -3 23 -5 27 -13 27 -5 0 -21 -17 -36 -37z"/>
<path d="M3248 1063 c6 -2 18 -2 25 0 6 3 1 5 -13 5 -14 0 -19 -2 -12 -5z"/>
</g>
</svg>
